<?xml version="1.0" encoding="utf-8"?>
<!-- Generator: Adobe Illustrator 17.1.0, SVG Export Plug-In . SVG Version: 6.00 Build 0)  -->
<!DOCTYPE svg PUBLIC "-//W3C//DTD SVG 1.1//EN" "http://www.w3.org/Graphics/SVG/1.1/DTD/svg11.dtd">
<svg version="1.1" xmlns="http://www.w3.org/2000/svg" xmlns:xlink="http://www.w3.org/1999/xlink" x="0px" y="0px"
	 viewBox="0 0 960 560" enable-background="new 0 0 960 560" xml:space="preserve">
<g id="Calque_2_1_">
</g>
<g id="Calque_1">
	<ellipse display="none" fill="#1F6389" cx="484.9" cy="314.3" rx="631.2" ry="546.9"/>
	<ellipse fill="none" stroke="#FFFFFF" stroke-width="10" stroke-miterlimit="10" cx="484.9" cy="490.9" rx="379.9" ry="54.1"/>
	<path fill="#FFFFFF" d="M824.3,498.1c0,14.9-151.6,33.7-339.5,33.7S144.1,513,144.1,498.1s152.3-27,340.1-27
		S824.3,483.2,824.3,498.1z"/>
	<path fill="#3498DB" stroke="#FFFFFF" stroke-width="10" stroke-miterlimit="10" d="M400.7,38.6c41.3,21.5-133.7,75-165.9,81.7
		c-75.1,19.8-74.3,124.7-16.5,167.6c-14.9,169.2,131.3,146.9,141.2,198.1c0,0,0.8,24.9,2.5,40.5c43.8,7.3,239.7,10.4,254.5,0.2
		c0-9.1-1.8,8.7,0.6-40c1.7-75.1,174.2-40.5,144.5-215.5c69.5-46.8,43.8-147.8-57-170.1c-28.4-6.3-53.7-12.4-82.6-40.5
		c0,0-151.1-18.2-160.2-34.7C461.8,26.2,502.2,70,400.7,38.6z"/>
	<path fill="#FFFFFF" d="M473.3,176.5c0,0-150.2-165.1-194.8,32.2c-5,14.9,99.1-72.6,146.1,60.3c-60.3,105.7-138.7,41.3-146.1-13.2
		c-19-1.7-58,42.1-61.3,55.3c0,0-28.7,163.5,256.1,154.4C740,476.2,839,308.6,701.2,242.5c0,0-61.9,165.9-161,28.9
		c27.2-96.6,127.1-64.4,146.1-58.6c29.7,20.6,11.6-71.6-52-101C569.9,103,503,177.3,503,177.3S488.6,191.5,473.3,176.5z"/>
	<ellipse fill="#FFFFFF" cx="484.9" cy="357.1" rx="109" ry="72.3"/>
	<path fill="#590108" d="M441.1,428.3c0,0,50.4,24.8,100.7,0C543,432.4,475,472.9,441.1,428.3z"/>
	<path fill="#590108" d="M472.5,296.2c0,0-46.4-2.3-49.5,29.7c-3.3,34.1,44.7,61.4,57,55.3c8.3,2.5,59.8-17.1,52-64.4
		C523.7,293.7,472.5,296.2,472.5,296.2z"/>
	<path fill="#590108" d="M295,248.3c0,0,50.4-71.8,109.8,14C393.2,300.3,311.5,319.3,295,248.3z"/>
	<path fill="#590108" d="M557.5,264c0,0,46.2-87.5,115.6-21.5C669,316,577.3,301.1,557.5,264z"/>
	<circle fill="#FFFFFF" cx="509.6" cy="325.9" r="11.6"/>
	<circle fill="#FFFFFF" cx="366.3" cy="251.6" r="11.6"/>
	<circle fill="#FFFFFF" cx="641.2" cy="246.6" r="11.6"/>
	<path fill="#590108" d="M260.3,156.4c-32.5-0.4-100.1,27.9-44,119.7C230.5,301.6,287.1,152.6,260.3,156.4z"/>
	<path fill="#590108" d="M711.1,145.1c22.8-27,103.2,28.9,47.9,113.1C745.7,235.6,702.8,141.8,711.1,145.1z"/>
	<path fill="#590108" d="M314,382.1c-11.6-0.9,19-40.5,28.9-30.6c9.9,9.9-16.5,7.5-9.1,14.5c7.4,7,181.9,103.8,323.6-22.7
		c5.4-4,0.8-14.9-4.6-17.3c-0.8-12.8,35.2,14.9,26.5,31.8c-8.7,16.9-7.8-9.1-14-7.4C541.8,471.2,336.7,399,328.4,371.3
		C318.5,386.2,314,382.1,314,382.1z"/>
	<path fill="#FFFFFF" stroke="#3498DB" stroke-width="6" stroke-miterlimit="10" d="M693.3,426.7c31.7-11.6-62.2,20.9-70,23.2
		c-85.9,26-262.3,47.2-261.5,76.8c0,0-2.5,5.7,4.5,6.6c10,1.4,219,11.8,250.6-3.5C607.4,465.9,693.3,426.7,693.3,426.7z"/>
</g>
</svg>
